<svg 
    xmlns="http://www.w3.org/2000/svg">
<symbol width="21" height="21" viewBox="0 0 21 21" id="instagram-black">
    <path d="M10.0078 4.87388C7.16852 4.87388 4.87834 7.16406 4.87834 10.0033C4.87834 12.8426 7.16852 15.1328 10.0078 15.1328C12.8471 15.1328 15.1373 12.8426 15.1373 10.0033C15.1373 7.16406 12.8471 4.87388 10.0078 4.87388ZM10.0078 13.3382C8.17298 13.3382 6.67298 11.8426 6.67298 10.0033C6.67298 8.16406 8.16851 6.66853 10.0078 6.66853C11.8471 6.66853 13.3426 8.16406 13.3426 10.0033C13.3426 11.8426 11.8426 13.3382 10.0078 13.3382V13.3382ZM16.5435 4.66406C16.5435 5.32924 16.0078 5.86049 15.3471 5.86049C14.6819 5.86049 14.1506 5.32478 14.1506 4.66406C14.1506 4.00335 14.6864 3.46763 15.3471 3.46763C16.0078 3.46763 16.5435 4.00335 16.5435 4.66406ZM19.9408 5.87835C19.8649 4.27567 19.4989 2.85603 18.3247 1.68638C17.1551 0.516741 15.7355 0.15067 14.1328 0.0703125C12.481 -0.0234375 7.53012 -0.0234375 5.87834 0.0703125C4.28013 0.146205 2.86049 0.512277 1.68638 1.68192C0.512276 2.85156 0.150669 4.27121 0.0703124 5.87388C-0.0234375 7.52567 -0.0234375 12.4766 0.0703124 14.1283C0.146205 15.731 0.512276 17.1507 1.68638 18.3203C2.86049 19.49 4.27566 19.856 5.87834 19.9364C7.53012 20.0301 12.481 20.0301 14.1328 19.9364C15.7355 19.8605 17.1551 19.4944 18.3247 18.3203C19.4944 17.1507 19.8605 15.731 19.9408 14.1283C20.0346 12.4766 20.0346 7.53013 19.9408 5.87835V5.87835ZM17.8069 15.9007C17.4587 16.7757 16.7846 17.4498 15.9051 17.8025C14.5881 18.3248 11.4632 18.2042 10.0078 18.2042C8.55244 18.2042 5.42298 18.3203 4.11048 17.8025C3.23549 17.4542 2.56138 16.7801 2.2087 15.9007C1.68638 14.5837 1.80692 11.4587 1.80692 10.0033C1.80692 8.54799 1.69085 5.41853 2.2087 4.10603C2.55692 3.23103 3.23102 2.55692 4.11048 2.20424C5.42745 1.68192 8.55244 1.80246 10.0078 1.80246C11.4632 1.80246 14.5926 1.68638 15.9051 2.20424C16.7801 2.55246 17.4542 3.22656 17.8069 4.10603C18.3292 5.42299 18.2087 8.54799 18.2087 10.0033C18.2087 11.4587 18.3292 14.5882 17.8069 15.9007Z" fill="#0D0D0D"/>
</symbol>
<symbol width="21" height="21" viewBox="0 0 21 21" id="instagram-green">
    <path d="M10.0078 4.87388C7.16852 4.87388 4.87834 7.16406 4.87834 10.0033C4.87834 12.8426 7.16852 15.1328 10.0078 15.1328C12.8471 15.1328 15.1373 12.8426 15.1373 10.0033C15.1373 7.16406 12.8471 4.87388 10.0078 4.87388ZM10.0078 13.3382C8.17298 13.3382 6.67298 11.8426 6.67298 10.0033C6.67298 8.16406 8.16851 6.66853 10.0078 6.66853C11.8471 6.66853 13.3426 8.16406 13.3426 10.0033C13.3426 11.8426 11.8426 13.3382 10.0078 13.3382V13.3382ZM16.5435 4.66406C16.5435 5.32924 16.0078 5.86049 15.3471 5.86049C14.6819 5.86049 14.1506 5.32478 14.1506 4.66406C14.1506 4.00335 14.6864 3.46763 15.3471 3.46763C16.0078 3.46763 16.5435 4.00335 16.5435 4.66406ZM19.9408 5.87835C19.8649 4.27567 19.4989 2.85603 18.3247 1.68638C17.1551 0.516741 15.7355 0.15067 14.1328 0.0703125C12.481 -0.0234375 7.53012 -0.0234375 5.87834 0.0703125C4.28013 0.146205 2.86049 0.512277 1.68638 1.68192C0.512276 2.85156 0.150669 4.27121 0.0703124 5.87388C-0.0234375 7.52567 -0.0234375 12.4766 0.0703124 14.1283C0.146205 15.731 0.512276 17.1507 1.68638 18.3203C2.86049 19.49 4.27566 19.856 5.87834 19.9364C7.53012 20.0301 12.481 20.0301 14.1328 19.9364C15.7355 19.8605 17.1551 19.4944 18.3247 18.3203C19.4944 17.1507 19.8605 15.731 19.9408 14.1283C20.0346 12.4766 20.0346 7.53013 19.9408 5.87835V5.87835ZM17.8069 15.9007C17.4587 16.7757 16.7846 17.4498 15.9051 17.8025C14.5881 18.3248 11.4632 18.2042 10.0078 18.2042C8.55244 18.2042 5.42298 18.3203 4.11048 17.8025C3.23549 17.4542 2.56138 16.7801 2.2087 15.9007C1.68638 14.5837 1.80692 11.4587 1.80692 10.0033C1.80692 8.54799 1.69085 5.41853 2.2087 4.10603C2.55692 3.23103 3.23102 2.55692 4.11048 2.20424C5.42745 1.68192 8.55244 1.80246 10.0078 1.80246C11.4632 1.80246 14.5926 1.68638 15.9051 2.20424C16.7801 2.55246 17.4542 3.22656 17.8069 4.10603C18.3292 5.42299 18.2087 8.54799 18.2087 10.0033C18.2087 11.4587 18.3292 14.5882 17.8069 15.9007Z" fill="#bc1e1e"/>
</symbol>
<symbol width="21" height="19" viewBox="0 0 10 19" id="face-black">
   <path d="M9.34469 10.5025L9.86325 7.12348H6.62096V4.93071C6.62096 4.00627 7.07388 3.10517 8.526 3.10517H10V0.228284C10 0.228284 8.66239 0 7.38349 0C4.71337 0 2.96806 1.61841 2.96806 4.54817V7.12348H0V10.5025H2.96806V18.6711H6.62096V10.5025H9.34469Z" fill="#0D0D0D"/>
</symbol> 
<symbol width="21" height="19" viewBox="0 0 10 19" id="face-green">
   <path d="M9.34469 10.5025L9.86325 7.12348H6.62096V4.93071C6.62096 4.00627 7.07388 3.10517 8.526 3.10517H10V0.228284C10 0.228284 8.66239 0 7.38349 0C4.71337 0 2.96806 1.61841 2.96806 4.54817V7.12348H0V10.5025H2.96806V18.6711H6.62096V10.5025H9.34469Z" fill="#bc1e1e"/>
</symbol> 
<symbol width="20" height="20" viewBox="0 0 20 20" id="git-black">
  <path d="M6.68952 15.7016C6.68952 15.7823 6.59677 15.8468 6.47984 15.8468C6.34677 15.8589 6.25403 15.7944 6.25403 15.7016C6.25403 15.621 6.34677 15.5565 6.46371 15.5565C6.58468 15.5444 6.68952 15.6089 6.68952 15.7016ZM5.43548 15.5202C5.40726 15.6008 5.4879 15.6935 5.60887 15.7177C5.71371 15.7581 5.83468 15.7177 5.85887 15.6371C5.88306 15.5565 5.80645 15.4637 5.68548 15.4274C5.58065 15.3992 5.46371 15.4395 5.43548 15.5202ZM7.21774 15.4516C7.10081 15.4798 7.02016 15.5565 7.03226 15.6492C7.04435 15.7298 7.14919 15.7823 7.27016 15.754C7.3871 15.7258 7.46774 15.6492 7.45564 15.5685C7.44355 15.4919 7.33468 15.4395 7.21774 15.4516ZM9.87097 0C4.27823 0 0 4.24597 0 9.83871C0 14.3105 2.81452 18.1371 6.83468 19.4839C7.35081 19.5766 7.53226 19.2581 7.53226 18.996C7.53226 18.746 7.52016 17.3669 7.52016 16.5202C7.52016 16.5202 4.69758 17.125 4.10484 15.3185C4.10484 15.3185 3.64516 14.1452 2.98387 13.8427C2.98387 13.8427 2.06048 13.2097 3.04839 13.2218C3.04839 13.2218 4.05242 13.3024 4.60484 14.2621C5.4879 15.8185 6.96774 15.371 7.54435 15.1048C7.6371 14.4597 7.89919 14.0121 8.18952 13.746C5.93548 13.496 3.66129 13.1694 3.66129 9.29032C3.66129 8.18145 3.96774 7.625 4.6129 6.91532C4.50806 6.65323 4.16532 5.57258 4.71774 4.17742C5.56048 3.91532 7.5 5.26613 7.5 5.26613C8.30645 5.04032 9.17339 4.92339 10.0323 4.92339C10.8911 4.92339 11.7581 5.04032 12.5645 5.26613C12.5645 5.26613 14.504 3.91129 15.3468 4.17742C15.8992 5.57661 15.5565 6.65323 15.4516 6.91532C16.0968 7.62903 16.4919 8.18548 16.4919 9.29032C16.4919 13.1815 14.1169 13.4919 11.8629 13.746C12.2339 14.0645 12.5484 14.6694 12.5484 15.6169C12.5484 16.9758 12.5363 18.6573 12.5363 18.9879C12.5363 19.25 12.7218 19.5685 13.2339 19.4758C17.2661 18.1371 20 14.3105 20 9.83871C20 4.24597 15.4637 0 9.87097 0ZM3.91935 13.9073C3.86694 13.9476 3.87903 14.0403 3.94758 14.1169C4.0121 14.1815 4.10484 14.2097 4.15726 14.1573C4.20968 14.1169 4.19758 14.0242 4.12903 13.9476C4.06452 13.8831 3.97177 13.8548 3.91935 13.9073ZM3.48387 13.5806C3.45565 13.6331 3.49597 13.6976 3.57661 13.7379C3.64113 13.7782 3.72177 13.7661 3.75 13.7097C3.77823 13.6573 3.7379 13.5927 3.65726 13.5524C3.57661 13.5282 3.5121 13.5403 3.48387 13.5806ZM4.79032 15.0161C4.72581 15.0685 4.75 15.1895 4.84274 15.2661C4.93548 15.3589 5.05242 15.371 5.10484 15.3065C5.15726 15.254 5.13306 15.1331 5.05242 15.0565C4.96371 14.9637 4.84274 14.9516 4.79032 15.0161ZM4.33065 14.4234C4.26613 14.4637 4.26613 14.5685 4.33065 14.6613C4.39516 14.754 4.50403 14.7944 4.55645 14.754C4.62097 14.7016 4.62097 14.5968 4.55645 14.504C4.5 14.4113 4.39516 14.371 4.33065 14.4234Z" fill="#0D0D0D"/>
</symbol> 
<symbol width="20" height="20" viewBox="0 0 20 20" id="git-green">
   <path d="M6.68952 15.7016C6.68952 15.7823 6.59677 15.8468 6.47984 15.8468C6.34677 15.8589 6.25403 15.7944 6.25403 15.7016C6.25403 15.621 6.34677 15.5565 6.46371 15.5565C6.58468 15.5444 6.68952 15.6089 6.68952 15.7016ZM5.43548 15.5202C5.40726 15.6008 5.4879 15.6935 5.60887 15.7177C5.71371 15.7581 5.83468 15.7177 5.85887 15.6371C5.88306 15.5565 5.80645 15.4637 5.68548 15.4274C5.58065 15.3992 5.46371 15.4395 5.43548 15.5202ZM7.21774 15.4516C7.10081 15.4798 7.02016 15.5565 7.03226 15.6492C7.04435 15.7298 7.14919 15.7823 7.27016 15.754C7.3871 15.7258 7.46774 15.6492 7.45564 15.5685C7.44355 15.4919 7.33468 15.4395 7.21774 15.4516ZM9.87097 0C4.27823 0 0 4.24597 0 9.83871C0 14.3105 2.81452 18.1371 6.83468 19.4839C7.35081 19.5766 7.53226 19.2581 7.53226 18.996C7.53226 18.746 7.52016 17.3669 7.52016 16.5202C7.52016 16.5202 4.69758 17.125 4.10484 15.3185C4.10484 15.3185 3.64516 14.1452 2.98387 13.8427C2.98387 13.8427 2.06048 13.2097 3.04839 13.2218C3.04839 13.2218 4.05242 13.3024 4.60484 14.2621C5.4879 15.8185 6.96774 15.371 7.54435 15.1048C7.6371 14.4597 7.89919 14.0121 8.18952 13.746C5.93548 13.496 3.66129 13.1694 3.66129 9.29032C3.66129 8.18145 3.96774 7.625 4.6129 6.91532C4.50806 6.65323 4.16532 5.57258 4.71774 4.17742C5.56048 3.91532 7.5 5.26613 7.5 5.26613C8.30645 5.04032 9.17339 4.92339 10.0323 4.92339C10.8911 4.92339 11.7581 5.04032 12.5645 5.26613C12.5645 5.26613 14.504 3.91129 15.3468 4.17742C15.8992 5.57661 15.5565 6.65323 15.4516 6.91532C16.0968 7.62903 16.4919 8.18548 16.4919 9.29032C16.4919 13.1815 14.1169 13.4919 11.8629 13.746C12.2339 14.0645 12.5484 14.6694 12.5484 15.6169C12.5484 16.9758 12.5363 18.6573 12.5363 18.9879C12.5363 19.25 12.7218 19.5685 13.2339 19.4758C17.2661 18.1371 20 14.3105 20 9.83871C20 4.24597 15.4637 0 9.87097 0ZM3.91935 13.9073C3.86694 13.9476 3.87903 14.0403 3.94758 14.1169C4.0121 14.1815 4.10484 14.2097 4.15726 14.1573C4.20968 14.1169 4.19758 14.0242 4.12903 13.9476C4.06452 13.8831 3.97177 13.8548 3.91935 13.9073ZM3.48387 13.5806C3.45565 13.6331 3.49597 13.6976 3.57661 13.7379C3.64113 13.7782 3.72177 13.7661 3.75 13.7097C3.77823 13.6573 3.7379 13.5927 3.65726 13.5524C3.57661 13.5282 3.5121 13.5403 3.48387 13.5806ZM4.79032 15.0161C4.72581 15.0685 4.75 15.1895 4.84274 15.2661C4.93548 15.3589 5.05242 15.371 5.10484 15.3065C5.15726 15.254 5.13306 15.1331 5.05242 15.0565C4.96371 14.9637 4.84274 14.9516 4.79032 15.0161ZM4.33065 14.4234C4.26613 14.4637 4.26613 14.5685 4.33065 14.6613C4.39516 14.754 4.50403 14.7944 4.55645 14.754C4.62097 14.7016 4.62097 14.5968 4.55645 14.504C4.5 14.4113 4.39516 14.371 4.33065 14.4234Z" fill="#bc1e1e"/>
</symbol> 
<symbol width="20" height="20"  viewBox="0 0 310 310" id="linkedin-black">
<path id="XMLID_802_" d="M72.16,99.73H9.927c-2.762,0-5,2.239-5,5v199.928c0,2.762,2.238,5,5,5H72.16c2.762,0,5-2.238,5-5V104.73
		C77.16,101.969,74.922,99.73,72.16,99.73z"/>
	<path id="XMLID_803_" d="M41.066,0.341C18.422,0.341,0,18.743,0,41.362C0,63.991,18.422,82.4,41.066,82.4
		c22.626,0,41.033-18.41,41.033-41.038C82.1,18.743,63.692,0.341,41.066,0.341z"/>
	<path id="XMLID_804_" d="M230.454,94.761c-24.995,0-43.472,10.745-54.679,22.954V104.73c0-2.761-2.238-5-5-5h-59.599
		c-2.762,0-5,2.239-5,5v199.928c0,2.762,2.238,5,5,5h62.097c2.762,0,5-2.238,5-5v-98.918c0-33.333,9.054-46.319,32.29-46.319
		c25.306,0,27.317,20.818,27.317,48.034v97.204c0,2.762,2.238,5,5,5H305c2.762,0,5-2.238,5-5V194.995
		C310,145.43,300.549,94.761,230.454,94.761z" />
</symbol>
<symbol width="20" height="20"  viewBox="0 0 310 310" id="linkedin-green">
<path id="XMLID_802_" d="M72.16,99.73H9.927c-2.762,0-5,2.239-5,5v199.928c0,2.762,2.238,5,5,5H72.16c2.762,0,5-2.238,5-5V104.73
		C77.16,101.969,74.922,99.73,72.16,99.73z" fill="#bc1e1e"/>
	<path id="XMLID_803_" d="M41.066,0.341C18.422,0.341,0,18.743,0,41.362C0,63.991,18.422,82.4,41.066,82.4
		c22.626,0,41.033-18.41,41.033-41.038C82.1,18.743,63.692,0.341,41.066,0.341z"/>
	<path id="XMLID_804_" d="M230.454,94.761c-24.995,0-43.472,10.745-54.679,22.954V104.73c0-2.761-2.238-5-5-5h-59.599
		c-2.762,0-5,2.239-5,5v199.928c0,2.762,2.238,5,5,5h62.097c2.762,0,5-2.238,5-5v-98.918c0-33.333,9.054-46.319,32.29-46.319
		c25.306,0,27.317,20.818,27.317,48.034v97.204c0,2.762,2.238,5,5,5H305c2.762,0,5-2.238,5-5V194.995
		C310,145.43,300.549,94.761,230.454,94.761z" fill="#bc1e1e" />
</symbol>
<symbol id="redCross" fill="red" width="21px" height="21px" viewBox="0 0 24 24">
    <path d="M12,2A10,10,0,1,0,22,12,10,10,0,0,0,12,2Zm3.71,12.29a1,1,0,0,1,0,1.42,1,1,0,0,1-1.42,0L12,13.42,9.71,15.71a1,1,0,0,1-1.42,0,1,1,0,0,1,0-1.42L10.58,12,8.29,9.71A1,1,0,0,1,9.71,8.29L12,10.58l2.29-2.29a1,1,0,0,1,1.42,1.42L13.42,12Z"></path>
</symbol>
<symbol id="search" width ="25px" height="25px"  viewBox="0 0 64 64">
    <path d="M 24 2.8886719 C 12.365714 2.8886719 2.8886719 12.365723 2.8886719 24 C 2.8886719 35.634277 12.365714 45.111328 24 45.111328 C 29.036552 45.111328 33.664698 43.331333 37.298828 40.373047 L 52.130859 58.953125 C 52.130859 58.953125 55.379484 59.435984 57.396484 57.333984 C 59.427484 55.215984 58.951172 52.134766 58.951172 52.134766 L 40.373047 37.298828 C 43.331332 33.664697 45.111328 29.036548 45.111328 24 C 45.111328 12.365723 35.634286 2.8886719 24 2.8886719 z M 24 7.1113281 C 33.352549 7.1113281 40.888672 14.647457 40.888672 24 C 40.888672 33.352543 33.352549 40.888672 24 40.888672 C 14.647451 40.888672 7.1113281 33.352543 7.1113281 24 C 7.1113281 14.647457 14.647451 7.1113281 24 7.1113281 z"/></path>
</symbol>
</svg>

