<svg 
    xmlns="http://www.w3.org/2000/svg">
<symbol id="redCross" fill="red" width="21px" height="21px" viewBox="0 0 24 24">
    <path d="M12,2A10,10,0,1,0,22,12,10,10,0,0,0,12,2Zm3.71,12.29a1,1,0,0,1,0,1.42,1,1,0,0,1-1.42,0L12,13.42,9.71,15.71a1,1,0,0,1-1.42,0,1,1,0,0,1,0-1.42L10.58,12,8.29,9.71A1,1,0,0,1,9.71,8.29L12,10.58l2.29-2.29a1,1,0,0,1,1.42,1.42L13.42,12Z"></path>
</symbol>
<symbol id="search" width ="25px" height="25px"  viewBox="0 0 64 64">
    <path d="M 24 2.8886719 C 12.365714 2.8886719 2.8886719 12.365723 2.8886719 24 C 2.8886719 35.634277 12.365714 45.111328 24 45.111328 C 29.036552 45.111328 33.664698 43.331333 37.298828 40.373047 L 52.130859 58.953125 C 52.130859 58.953125 55.379484 59.435984 57.396484 57.333984 C 59.427484 55.215984 58.951172 52.134766 58.951172 52.134766 L 40.373047 37.298828 C 43.331332 33.664697 45.111328 29.036548 45.111328 24 C 45.111328 12.365723 35.634286 2.8886719 24 2.8886719 z M 24 7.1113281 C 33.352549 7.1113281 40.888672 14.647457 40.888672 24 C 40.888672 33.352543 33.352549 40.888672 24 40.888672 C 14.647451 40.888672 7.1113281 33.352543 7.1113281 24 C 7.1113281 14.647457 14.647451 7.1113281 24 7.1113281 z"/></svg>
</symbol>
<symbol id="git" width="25px" height="25px" viewBox="0 0 50 50">
	<path d="M 46.792969 22.089844 L 27.910156 3.207031 C 27.109375 2.402344 26.054688 2 25 2 C 23.945313 2 22.890625 2.402344 22.089844 3.207031 L 18.355469 6.941406 L 22.976563 11.5625 C 24.511719 10.660156 26.511719 10.855469 27.828125 12.171875 C 29.144531 13.488281 29.335938 15.488281 28.433594 17.019531 L 32.976563 21.5625 C 34.511719 20.660156 36.511719 20.855469 37.828125 22.171875 C 39.390625 23.734375 39.390625 26.265625 37.828125 27.828125 C 36.265625 29.390625 33.734375 29.390625 32.171875 27.828125 C 30.855469 26.511719 30.660156 24.511719 31.5625 22.976563 L 27.019531 18.433594 C 26.695313 18.625 26.355469 18.765625 26 18.855469 L 26 31.140625 C 27.722656 31.585938 29 33.136719 29 35 C 29 37.210938 27.210938 39 25 39 C 22.789063 39 21 37.210938 21 35 C 21 33.136719 22.277344 31.585938 24 31.140625 L 24 18.855469 C 23.332031 18.683594 22.695313 18.351563 22.171875 17.828125 C 20.855469 16.511719 20.664063 14.511719 21.566406 12.980469 L 16.941406 8.355469 L 3.207031 22.089844 C 1.597656 23.695313 1.597656 26.304688 3.207031 27.910156 L 22.089844 46.792969 C 22.890625 47.597656 23.945313 48 25 48 C 26.054688 48 27.109375 47.597656 27.910156 46.792969 L 46.792969 27.910156 C 48.402344 26.304688 48.402344 23.695313 46.792969 22.089844 Z"/></svg>
</symbol>
</svg>

